# xmcd
#
# Track frame offsets:
#	150
#	14070
#	26985
#	38344
#	49164
#	64254
#	78763
#	90763
#	104262
#	117538
#	131238
#	144917
#	158448
#	172609
#	186769
#	200552
#	212644
#	226598
#	240524
#	254827
#	268983
#	282102
#	295825
#	309577
#
# Disc length: 4291 seconds
#
# Revision: 0
# Processed by: cddbd v1.5.1PL0 Copyright (c) Steve Scherf et al.
# Submitted via: audiograbber 1.83.01
#
DISCID=4c10c118
DTITLE=Female Blues Singers - Complete Recorded Works - 1997 - Vol 13 - R-S (19
DTITLE=21-1931) DOCD-5517
DYEAR=1997
DGENRE=Blues
TTITLE0=I've Got The Right Man Now
TTITLE1=I Never Loved But One Woman's Son
TTITLE2=Little Joe
TTITLE3=St.Louis Blues
TTITLE4=I'm Craving For That Kind Of Love
TTITLE5=Daddy, Won't You Please Come Home
TTITLE6=Potomac River Blues
TTITLE7=Love Me
TTITLE8=Don't Let Your Love Come Down
TTITLE9=You Can't Have It Unless I Give It To You
TTITLE10=Royal Garden Blues
TTITLE11=Crazy Blues
TTITLE12=I'm Gonna Jazz My Way Right Straight Thru Paradise
TTITLE13=Down Where They Play The Blues
TTITLE14=If You Don't Want Me Send Me To My Ma
TTITLE15=Strut Miss Lizzie
TTITLE16=Wild Weeping Blues
TTITLE17=I've Lost My Heart To The Meanest Girl In Town
TTITLE18=Arkansas Blues
TTITLE19=Down Home Blues
TTITLE20=Blind Man Blues
TTITLE21=Monday Morning Blues
TTITLE22=Ain't Got Nobody To Grind My Coffee In The Morning
TTITLE23=Take Your Finger Off It
EXTD=Document Records, Austria
EXTT0=
EXTT1=
EXTT2=
EXTT3=
EXTT4=
EXTT5=
EXTT6=
EXTT7=
EXTT8=
EXTT9=
EXTT10=
EXTT11=
EXTT12=
EXTT13=
EXTT14=
EXTT15=
EXTT16=
EXTT17=
EXTT18=
EXTT19=
EXTT20=
EXTT21=
EXTT22=
EXTT23=
PLAYORDER=
